<svg xmlns="http://www.w3.org/2000/svg" viewBox="0 0 419.55 90.84"><defs><style>.cls-1{fill:#e0234e;}.cls-2{fill:#fff;}.cls-3{fill:#fcfcfc;}</style></defs><title>SVG</title><g id="Layer_2" data-name="Layer 2"><g id="Layer_3" data-name="Layer 3"><g id="Text_Group" data-name="Text Group"><rect id="Kotak_Text" data-name="Kotak Text" class="cls-1" x="121.35" width="298.2" height="89.13"/><g id="Bajova_Text" data-name="Bajova Text"><path class="cls-2" d="M160.8,42.16q-.76.43-.76.85t.76.85l5.1,2.55q2.46,1.28,3.83,2.08a6.47,6.47,0,0,1,2,1.79,4.94,4.94,0,0,1,.81,2.42q.13,1.45.13,3.91V62.9a9.18,9.18,0,0,1-.64,3.87,3.72,3.72,0,0,1-1.91,1.87,9.67,9.67,0,0,1-3.19.68q-1.91.13-4.46.21l-4.59.13q-2,0-4,0t-3.91,0l-4.55-.13q-3.82-.08-6.42-.21a14,14,0,0,1-4.17-.72,4.23,4.23,0,0,1-2.29-1.87,8,8,0,0,1-.72-3.82V22.1q0-2.21.13-3.53a3.52,3.52,0,0,1,.77-2,3.46,3.46,0,0,1,2-1,28.3,28.3,0,0,1,3.87-.34l5.4-.17q2.42-.08,4.8-.09t4.8.09l5.4.17q3.74.17,5.82.47a7.32,7.32,0,0,1,3.06,1,2.74,2.74,0,0,1,1.15,2,28,28,0,0,1,.17,3.44V32a29.78,29.78,0,0,1-.13,3.06,4.85,4.85,0,0,1-.76,2.17,6.63,6.63,0,0,1-2,1.87q-1.4.89-3.87,2.17Zm-22.1-1.61a8.89,8.89,0,0,0,.38,3,1.58,1.58,0,0,0,1.66,1,13.22,13.22,0,0,0,4.76-1.7l6.8-3.4a18.89,18.89,0,0,0,2-1,2.51,2.51,0,0,0,1-1.06,5,5,0,0,0,.38-1.7q.08-1.06.08-2.93v-7.4a14.1,14.1,0,0,0-.08-1.74,1.65,1.65,0,0,0-.42-1,1.91,1.91,0,0,0-1-.47,17.62,17.62,0,0,0-1.87-.21q-5.1-.25-10.2,0a17.52,17.52,0,0,0-1.87.21,1.9,1.9,0,0,0-1,.47,1.64,1.64,0,0,0-.42,1,13.91,13.91,0,0,0-.08,1.74Zm6.8,15.55q0,2.55.13,3.91a2.62,2.62,0,0,0,2.76,2.76q1.36.13,3.91.21,3.4.09,6.8,0,2.55-.08,3.91-.21A2.62,2.62,0,0,0,165.77,60q.13-1.36.13-3.91a9.66,9.66,0,0,0-.08-1.4,2.3,2.3,0,0,0-.38-1,2.93,2.93,0,0,0-1-.81l-2-1.06-6.8-3.4a17.63,17.63,0,0,0-2-.89,4.45,4.45,0,0,0-1.4-.21,5.53,5.53,0,0,0-2.29.6l-1.1.51a19.28,19.28,0,0,0-2,1,2.5,2.5,0,0,0-1,1.06,5.1,5.1,0,0,0-.38,1.74q-.08,1.11-.08,3Z" transform="translate(0 -0.16)"/><path class="cls-2" d="M177.8,36.55a15.74,15.74,0,0,1,.08-1.87,3.07,3.07,0,0,1,.38-1.19,2.82,2.82,0,0,1,1-.94q.68-.42,2-1.1L188,28q1.19-.59,1.87-1a3.32,3.32,0,0,0,1-.94,2.78,2.78,0,0,0,.42-1.23,17.33,17.33,0,0,0,.08-1.91V22.1q0-2.55.13-3.91a3.37,3.37,0,0,1,.76-2,3,3,0,0,1,2-.81q1.36-.13,3.91-.13t3.91.13a3,3,0,0,1,2,.81,3.37,3.37,0,0,1,.76,2q.13,1.36.13,3.91v.77a17.86,17.86,0,0,0,.08,2,2.75,2.75,0,0,0,.42,1.23,3.27,3.27,0,0,0,1,.94q.68.43,1.87,1l6.8,3.4q1.19.6,1.87,1a3.32,3.32,0,0,1,1,.94,2.79,2.79,0,0,1,.42,1.23,17.36,17.36,0,0,1,.08,1.91V62.9q0,2.55-.13,3.91a3.37,3.37,0,0,1-.76,2,3,3,0,0,1-2,.81q-1.36.13-3.91.13t-3.91-.13a3,3,0,0,1-2-.81,3.36,3.36,0,0,1-.77-2Q205,65.45,205,62.9T204.87,59a3.37,3.37,0,0,0-.76-2,2.89,2.89,0,0,0-2-.77q-1.36-.08-3.91-.08t-3.91.13A2.62,2.62,0,0,0,191.53,59q-.13,1.36-.13,3.91t-.13,3.91a3.36,3.36,0,0,1-.77,2,3,3,0,0,1-2,.81q-1.36.13-3.91.13t-3.91-.13a3,3,0,0,1-2-.81,3.37,3.37,0,0,1-.77-2q-.13-1.36-.13-3.91Zm23.8-4.08q-1.19-.59-2-.89a3.66,3.66,0,0,0-2.89,0q-.76.3-2,.89l-6.46,3.23q-1.19.6-1.87,1a3.3,3.3,0,0,0-1,.94,2.76,2.76,0,0,0-.42,1.23,17.12,17.12,0,0,0-.08,1.91v1.7q0,2.55.13,3.91a2.62,2.62,0,0,0,2.76,2.76q1.36.13,3.91.13h12.92q2.55,0,3.91-.13a3.17,3.17,0,0,0,2-.77,3.23,3.23,0,0,0,.76-2q.13-1.4.13-3.87V40.8a17.36,17.36,0,0,0-.08-1.91,2.79,2.79,0,0,0-.43-1.23,3.31,3.31,0,0,0-1-.94q-.68-.42-1.87-1Z" transform="translate(0 -0.16)"/><path class="cls-2" d="M259.4,15.3q2.46,0,3.87.13a3.23,3.23,0,0,1,2,.77,3.17,3.17,0,0,1,.76,2q.13,1.36.13,3.91v2.55a2.41,2.41,0,0,1-1.06,2.25A16.37,16.37,0,0,1,262.8,28a16.26,16.26,0,0,0-2.34,1.15,2.41,2.41,0,0,0-1.06,2.25V47.6a2.41,2.41,0,0,0,1.06,2.25A16.26,16.26,0,0,0,262.8,51a16.37,16.37,0,0,1,2.34,1.15,2.41,2.41,0,0,1,1.06,2.25v8.5q0,2.21-.13,3.48a3.25,3.25,0,0,1-.76,2,3.37,3.37,0,0,1-2,.89,34.28,34.28,0,0,1-3.91.3q-6.37.25-13.6.25t-13.6-.25a34.26,34.26,0,0,1-3.91-.3,3.36,3.36,0,0,1-2-.89,3.25,3.25,0,0,1-.77-2q-.13-1.28-.13-3.48V56.1q0-2.55.13-3.91a2.63,2.63,0,0,1,2.76-2.76q1.36-.13,3.91-.13a26.63,26.63,0,0,1,3.78.21,4.44,4.44,0,0,1,2.25.94,4.66,4.66,0,0,1,1.32,2q.47,1.32,1.15,3.61.68,2.55,1.11,4a7,7,0,0,0,.89,2,1.65,1.65,0,0,0,1.15.72,16.89,16.89,0,0,0,2,.08q2.55,0,3.91-.13A2.62,2.62,0,0,0,252.47,60q.13-1.36.13-3.91V35.7q0-2.55-.13-3.91a3.37,3.37,0,0,0-.76-2,2.89,2.89,0,0,0-2-.76q-1.36-.08-3.91-.08t-3.91-.08a3,3,0,0,1-2-.72,3.23,3.23,0,0,1-.76-2q-.13-1.4-.13-4a33.78,33.78,0,0,1,.17-3.87,3.24,3.24,0,0,1,.85-2,3.36,3.36,0,0,1,2-.77q1.36-.13,3.74-.13Z" transform="translate(0 -0.16)"/><path class="cls-2" d="M313.8,53.46a16.13,16.13,0,0,1-.08,1.87,3.1,3.1,0,0,1-.38,1.19,3.2,3.2,0,0,1-1,1,14.06,14.06,0,0,1-2,1.06L303.6,62q-1.19.6-1.87,1a3.28,3.28,0,0,0-1,.94,2.75,2.75,0,0,0-.42,1.23,16.88,16.88,0,0,0-.08,1.91,11.32,11.32,0,0,1-.13,2,1.4,1.4,0,0,1-.76,1,5.16,5.16,0,0,1-2,.43q-1.36.08-3.91.08t-3.91-.08a5.15,5.15,0,0,1-2-.43,1.4,1.4,0,0,1-.76-1,10.66,10.66,0,0,1-.13-1.87,18.36,18.36,0,0,0-.08-2,2.79,2.79,0,0,0-.42-1.23,3.32,3.32,0,0,0-1-.94q-.68-.42-1.87-1l-6.8-3.4q-1.19-.59-1.87-1a3.27,3.27,0,0,1-1-.94,2.76,2.76,0,0,1-.42-1.23,16.86,16.86,0,0,1-.08-1.91V31.53a15.75,15.75,0,0,1,.08-1.87,3.07,3.07,0,0,1,.38-1.19,2.82,2.82,0,0,1,1-.94q.68-.42,2-1.1l6.8-3.4q1.19-.59,1.87-1a3.3,3.3,0,0,0,1-.94,2.78,2.78,0,0,0,.42-1.23,18.35,18.35,0,0,0,.08-2,11.33,11.33,0,0,1,.13-2,1.41,1.41,0,0,1,.76-1,5.16,5.16,0,0,1,2-.42q1.36-.08,3.91-.08t3.91.08a5.17,5.17,0,0,1,2,.42,1.41,1.41,0,0,1,.76,1,11.33,11.33,0,0,1,.13,2,17.86,17.86,0,0,0,.08,2,2.75,2.75,0,0,0,.42,1.23,3.26,3.26,0,0,0,1,.94q.68.43,1.87,1l6.8,3.4q1.19.6,1.87,1a3.32,3.32,0,0,1,1,.94,2.79,2.79,0,0,1,.42,1.23,17.36,17.36,0,0,1,.08,1.91ZM290,58.14a15.11,15.11,0,0,0,1.91.89,4.31,4.31,0,0,0,1.49.3,4,4,0,0,0,1.45-.3q.76-.3,2-.89l5.1-2.55q1.19-.59,1.87-1a3.31,3.31,0,0,0,1-.94,2.78,2.78,0,0,0,.42-1.23,17.33,17.33,0,0,0,.08-1.91v-16a17.36,17.36,0,0,0-.08-1.91,2.79,2.79,0,0,0-.42-1.23,3.32,3.32,0,0,0-1-.94q-.68-.42-1.87-1l-5.1-2.55a15.89,15.89,0,0,0-2-.85,4.58,4.58,0,0,0-1.45-.25,5,5,0,0,0-1.49.25,11.42,11.42,0,0,0-1.91.85l-5.1,2.55q-1.19.6-1.87,1a3.28,3.28,0,0,0-1,.94,2.76,2.76,0,0,0-.42,1.23,16.88,16.88,0,0,0-.08,1.91v16a16.86,16.86,0,0,0,.08,1.91,2.76,2.76,0,0,0,.42,1.23,3.27,3.27,0,0,0,1,.94q.68.43,1.87,1Zm10.2-11.81q0,1.28,0,2a2.82,2.82,0,0,1-.3,1.19,1.92,1.92,0,0,1-.81.77l-1.57.81-2.38,1.19a4,4,0,0,1-3.4,0l-2.38-1.19q-1-.51-1.57-.81a1.92,1.92,0,0,1-.81-.77,2.8,2.8,0,0,1-.3-1.19q0-.72,0-2V38.67q0-1.28,0-2a2.72,2.72,0,0,1,.3-1.15,2.2,2.2,0,0,1,.81-.81q.55-.34,1.57-.85l2.38-1.19a3.62,3.62,0,0,1,3.4,0l2.38,1.19q1,.51,1.57.85a2.21,2.21,0,0,1,.81.81,2.74,2.74,0,0,1,.3,1.15q0,.68,0,2Z" transform="translate(0 -0.16)"/><path class="cls-2" d="M327.4,45.56a17.09,17.09,0,0,0,.08,1.91,2.76,2.76,0,0,0,.42,1.23,3.27,3.27,0,0,0,1,.94q.68.43,1.87,1l6.8,3.4a15,15,0,0,0,1.91.89,4.31,4.31,0,0,0,1.49.3,4,4,0,0,0,1.45-.3q.76-.3,2-.89l6.8-3.4q1.19-.59,1.87-1a3.3,3.3,0,0,0,1-.94,2.79,2.79,0,0,0,.42-1.23,17.33,17.33,0,0,0,.08-1.91v-9a2.41,2.41,0,0,0-1.06-2.25,16.27,16.27,0,0,0-2.34-1.15A16.36,16.36,0,0,1,348.86,32a2.41,2.41,0,0,1-1.06-2.25V22.1q0-2.55.13-3.91a3.37,3.37,0,0,1,.77-2,3,3,0,0,1,2-.81q1.36-.13,3.91-.13t3.91.13a3,3,0,0,1,2,.81,3.37,3.37,0,0,1,.76,2q.13,1.36.13,3.91V50.15a16.13,16.13,0,0,1-.08,1.87,3.09,3.09,0,0,1-.38,1.19,3.19,3.19,0,0,1-1,1,14,14,0,0,1-2,1.06l-6.8,3.4a10.36,10.36,0,0,0-1.87,1.15,3.75,3.75,0,0,0-1,1.23,4.33,4.33,0,0,0-.42,1.53q-.09.85-.08,2a26,26,0,0,1-.13,2.93,2.26,2.26,0,0,1-.76,1.57,3.55,3.55,0,0,1-2,.6q-1.36.08-3.91.08t-3.91-.08a3.54,3.54,0,0,1-2-.6,2.21,2.21,0,0,1-.76-1.53,24.86,24.86,0,0,1-.13-2.89q0-1.28-.08-2.12a4.4,4.4,0,0,0-.42-1.53,3.8,3.8,0,0,0-1-1.23,10.46,10.46,0,0,0-1.87-1.15l-6.8-3.4q-1.19-.59-1.87-1a3.26,3.26,0,0,1-1-.93,2.76,2.76,0,0,1-.42-1.23,16.85,16.85,0,0,1-.08-1.91V22.1q0-2.55.13-3.91a3.37,3.37,0,0,1,.77-2,3,3,0,0,1,2-.81q1.36-.13,3.91-.13t3.91.13a3,3,0,0,1,2,.81,3.37,3.37,0,0,1,.77,2q.13,1.36.13,3.91v7.65A2.41,2.41,0,0,1,333.14,32a16.41,16.41,0,0,1-2.34,1.15,16.22,16.22,0,0,0-2.34,1.15,2.41,2.41,0,0,0-1.06,2.25Z" transform="translate(0 -0.16)"/><path class="cls-2" d="M368.2,36.55a15.74,15.74,0,0,1,.08-1.87,3.07,3.07,0,0,1,.38-1.19,2.82,2.82,0,0,1,1-.94q.68-.42,2-1.1l6.8-3.4q1.19-.59,1.87-1a3.32,3.32,0,0,0,1-.94,2.78,2.78,0,0,0,.42-1.23,17.33,17.33,0,0,0,.08-1.91V22.1q0-2.55.13-3.91a3.37,3.37,0,0,1,.76-2,3,3,0,0,1,2-.81q1.36-.13,3.91-.13t3.91.13a3,3,0,0,1,2,.81,3.37,3.37,0,0,1,.76,2q.13,1.36.13,3.91v.77a17.86,17.86,0,0,0,.08,2,2.75,2.75,0,0,0,.42,1.23,3.27,3.27,0,0,0,1,.94q.68.43,1.87,1l6.8,3.4q1.19.6,1.87,1a3.32,3.32,0,0,1,1,.94,2.79,2.79,0,0,1,.42,1.23,17.36,17.36,0,0,1,.08,1.91V62.9q0,2.55-.13,3.91a3.37,3.37,0,0,1-.76,2,3,3,0,0,1-2,.81q-1.36.13-3.91.13t-3.91-.13a3,3,0,0,1-2-.81,3.36,3.36,0,0,1-.77-2q-.13-1.36-.13-3.91T395.27,59a3.37,3.37,0,0,0-.76-2,2.89,2.89,0,0,0-2-.77q-1.36-.08-3.91-.08t-3.91.13A2.62,2.62,0,0,0,381.93,59q-.13,1.36-.13,3.91t-.13,3.91a3.36,3.36,0,0,1-.77,2,3,3,0,0,1-2,.81q-1.36.13-3.91.13t-3.91-.13a3,3,0,0,1-2-.81,3.37,3.37,0,0,1-.77-2q-.13-1.36-.13-3.91ZM392,32.47q-1.19-.59-2-.89a3.66,3.66,0,0,0-2.89,0q-.76.3-2,.89l-6.46,3.23q-1.19.6-1.87,1a3.3,3.3,0,0,0-1,.94,2.76,2.76,0,0,0-.42,1.23,17.12,17.12,0,0,0-.08,1.91v1.7q0,2.55.13,3.91a2.62,2.62,0,0,0,2.76,2.76q1.36.13,3.91.13h12.92q2.55,0,3.91-.13a3.17,3.17,0,0,0,2-.77,3.23,3.23,0,0,0,.76-2q.13-1.4.13-3.87V40.8a17.36,17.36,0,0,0-.08-1.91,2.79,2.79,0,0,0-.43-1.23,3.31,3.31,0,0,0-1-.94q-.68-.42-1.87-1Z" transform="translate(0 -0.16)"/></g></g><g id="Icon_Group" data-name="Icon Group"><path id="Antena_kanan" data-name="Antena kanan" class="cls-1" d="M60.06,36.56a1.51,1.51,0,0,0,1.1-1.43c.05-4.51,5-19.24,6.75-22.65,2.16-4.3,4.76-10.37,11.16-10.59h.09c1.06-.1,11.07,9.79,14.45,11.86,7.19,4.4,6,3.95,14.08,5.43,11.18,2.06,6,12.74-2.65,6.46-1.16-.84-17.37-12.39-17.75-12.73C76.68,3.25,74.44,2.67,68.36,15.52c-1.3,2.75-4.51,15-5,18.3l0,.14c-.07.27,0,1.11-.07,1.91a21.89,21.89,0,0,1,2.54-.18C66.57,35.67,56.89,37.48,60.06,36.56Z" transform="translate(0 -0.16)"/><path id="Antena_kiri" data-name="Antena kiri" class="cls-1" d="M51.64,35.19a1.53,1.53,0,0,1-1.23-1.28c-.74-4.44-7.59-18.36-9.7-21.51-2.65-4-6-9.64-11.9-9.06h-.08c-1,0-8.68,11-11.48,13.49-5.94,5.23-4.95,4.64-12.12,7.1-10,3.42-3.52,13.31,3.43,6C9.5,29,22.64,15.6,22.94,15.21c8.28-10.83,10.25-11.68,17.82.25C42.37,18,47.22,29.72,48.15,32.9l.05.14c.11.26.2,1.09.36,1.87A19,19,0,0,0,46.2,35C45.51,35.12,54.69,35.7,51.64,35.19Z" transform="translate(0 -0.16)"/><path id="Kepala" class="cls-1" d="M95.63,52.75c-2.4,10.94-12,17.84-14.87,19.88-4.75,3.4-6.45,3-11.29,7.13C62.28,85.92,61.61,91,57.92,91,54,91,53.5,85,45.46,78.08c-4.75-4.06-6-3.19-11.08-7-3.46-2.58-11.81-8.79-14.17-18.37-3.42-13.95,8-26.2,9.25-27.5C39.68,14.52,53.32,14.5,57.92,14.5s17.94,0,28.1,10.36C87.18,26,98.82,38.22,95.63,52.75Z" transform="translate(0 -0.16)"/><circle id="mata_kiri_-_bola_putih" data-name="mata kiri - bola putih" class="cls-3" cx="38.81" cy="44.56" r="16.17"/><circle id="mata_kiri_-_bola_warna" data-name="mata kiri - bola warna" class="cls-1" cx="38.84" cy="44.56" r="12.71"/><path id="mata_kiri_-_bola_bias" data-name="mata kiri - bola bias" class="cls-2" d="M28.78,46.08a1.75,1.75,0,1,1,0-3,3.61,3.61,0,1,1,.62,2.43A1.75,1.75,0,0,1,28.78,46.08Z" transform="translate(0 -0.16)"/><circle id="mata_kanan_-_bola_putih" data-name="mata kanan - bola putih" class="cls-3" cx="76.45" cy="43.27" r="16.17"/><circle id="mata_kanan_-_bola_warna" data-name="mata kanan - bola warna" class="cls-1" cx="76.47" cy="43.27" r="12.71"/><path id="mata_kanan_-_bola_bias" data-name="mata kanan - bola bias" class="cls-2" d="M66.42,44.78a1.75,1.75,0,1,1,0-3A3.61,3.61,0,1,1,67,44.18,1.75,1.75,0,0,1,66.42,44.78Z" transform="translate(0 -0.16)"/></g></g></g></svg>
